<svg xmlns="http://www.w3.org/2000/svg" xmlns:xlink="http://www.w3.org/1999/xlink" width="300" zoomAndPan="magnify" viewBox="0 0 224.87999 225" height="300" preserveAspectRatio="xMidYMid meet" version="1.0"><defs><clipPath id="683456b3dd"><path d="M 0 0.0585938 L 224.761719 0.0585938 L 224.761719 224.9375 L 0 224.9375 Z M 0 0.0585938 " clip-rule="nonzero"/></clipPath><clipPath id="d6a7e1b37a"><path d="M 170.410156 107.667969 L 223.828125 107.667969 L 223.828125 161.085938 L 170.410156 161.085938 Z M 170.410156 107.667969 " clip-rule="nonzero"/></clipPath><clipPath id="b0168307c1"><path d="M 197.121094 107.667969 C 182.371094 107.667969 170.410156 119.625 170.410156 134.378906 C 170.410156 149.128906 182.371094 161.085938 197.121094 161.085938 C 211.871094 161.085938 223.828125 149.128906 223.828125 134.378906 C 223.828125 119.625 211.871094 107.667969 197.121094 107.667969 Z M 197.121094 107.667969 " clip-rule="nonzero"/></clipPath><clipPath id="c9f657d426"><path d="M 0.410156 0.667969 L 53.828125 0.667969 L 53.828125 54.085938 L 0.410156 54.085938 Z M 0.410156 0.667969 " clip-rule="nonzero"/></clipPath><clipPath id="e9098d5cd9"><path d="M 27.121094 0.667969 C 12.371094 0.667969 0.410156 12.625 0.410156 27.378906 C 0.410156 42.128906 12.371094 54.085938 27.121094 54.085938 C 41.871094 54.085938 53.828125 42.128906 53.828125 27.378906 C 53.828125 12.625 41.871094 0.667969 27.121094 0.667969 Z M 27.121094 0.667969 " clip-rule="nonzero"/></clipPath><clipPath id="df73fc289c"><rect x="0" width="54" y="0" height="55"/></clipPath><clipPath id="c3c9adc6cd"><path d="M 170.410156 107.667969 L 223.824219 107.667969 L 223.824219 161.078125 L 170.410156 161.078125 Z M 170.410156 107.667969 " clip-rule="nonzero"/></clipPath><clipPath id="000f2b01cc"><path d="M 197.117188 107.667969 C 182.367188 107.667969 170.410156 119.625 170.410156 134.375 C 170.410156 149.125 182.367188 161.078125 197.117188 161.078125 C 211.867188 161.078125 223.824219 149.125 223.824219 134.375 C 223.824219 119.625 211.867188 107.667969 197.117188 107.667969 Z M 197.117188 107.667969 " clip-rule="nonzero"/></clipPath><clipPath id="8862db6cb2"><path d="M 154.972656 36.761719 L 208.738281 36.761719 L 208.738281 90.523438 L 154.972656 90.523438 Z M 154.972656 36.761719 " clip-rule="nonzero"/></clipPath><clipPath id="080914f1b2"><path d="M 181.855469 36.761719 C 167.007812 36.761719 154.972656 48.796875 154.972656 63.644531 C 154.972656 78.488281 167.007812 90.523438 181.855469 90.523438 C 196.703125 90.523438 208.738281 78.488281 208.738281 63.644531 C 208.738281 48.796875 196.703125 36.761719 181.855469 36.761719 Z M 181.855469 36.761719 " clip-rule="nonzero"/></clipPath><clipPath id="8af46ec002"><path d="M 0.972656 0.761719 L 54.738281 0.761719 L 54.738281 54.523438 L 0.972656 54.523438 Z M 0.972656 0.761719 " clip-rule="nonzero"/></clipPath><clipPath id="5f981d057b"><path d="M 27.855469 0.761719 C 13.007812 0.761719 0.972656 12.796875 0.972656 27.644531 C 0.972656 42.488281 13.007812 54.523438 27.855469 54.523438 C 42.703125 54.523438 54.738281 42.488281 54.738281 27.644531 C 54.738281 12.796875 42.703125 0.761719 27.855469 0.761719 Z M 27.855469 0.761719 " clip-rule="nonzero"/></clipPath><clipPath id="e226ae6e99"><rect x="0" width="55" y="0" height="55"/></clipPath><clipPath id="a88707b372"><path d="M 154.972656 36.761719 L 208.40625 36.761719 L 208.40625 90.195312 L 154.972656 90.195312 Z M 154.972656 36.761719 " clip-rule="nonzero"/></clipPath><clipPath id="986fe2f8b1"><path d="M 181.851562 36.761719 C 167.007812 36.761719 154.972656 48.796875 154.972656 63.640625 C 154.972656 78.484375 167.007812 90.519531 181.851562 90.519531 C 196.695312 90.519531 208.730469 78.484375 208.730469 63.640625 C 208.730469 48.796875 196.695312 36.761719 181.851562 36.761719 Z M 181.851562 36.761719 " clip-rule="nonzero"/></clipPath><clipPath id="a2c6938817"><path d="M 84.570312 3.160156 L 138.324219 3.160156 L 138.324219 56.917969 L 84.570312 56.917969 Z M 84.570312 3.160156 " clip-rule="nonzero"/></clipPath><clipPath id="3c9aea82f1"><path d="M 111.445312 3.160156 C 96.601562 3.160156 84.570312 15.195312 84.570312 30.039062 C 84.570312 44.882812 96.601562 56.917969 111.445312 56.917969 C 126.289062 56.917969 138.324219 44.882812 138.324219 30.039062 C 138.324219 15.195312 126.289062 3.160156 111.445312 3.160156 Z M 111.445312 3.160156 " clip-rule="nonzero"/></clipPath><clipPath id="a876481cb5"><path d="M 0.570312 0.160156 L 54.324219 0.160156 L 54.324219 53.917969 L 0.570312 53.917969 Z M 0.570312 0.160156 " clip-rule="nonzero"/></clipPath><clipPath id="d62c3b82c7"><path d="M 27.445312 0.160156 C 12.601562 0.160156 0.570312 12.195312 0.570312 27.039062 C 0.570312 41.882812 12.601562 53.917969 27.445312 53.917969 C 42.289062 53.917969 54.324219 41.882812 54.324219 27.039062 C 54.324219 12.195312 42.289062 0.160156 27.445312 0.160156 Z M 27.445312 0.160156 " clip-rule="nonzero"/></clipPath><clipPath id="b961c951d0"><rect x="0" width="55" y="0" height="54"/></clipPath><clipPath id="f10ea15520"><path d="M 84.570312 3.160156 L 138.003906 3.160156 L 138.003906 56.59375 L 84.570312 56.59375 Z M 84.570312 3.160156 " clip-rule="nonzero"/></clipPath><clipPath id="6b1679a74e"><path d="M 111.441406 3.160156 C 96.601562 3.160156 84.570312 15.191406 84.570312 30.035156 C 84.570312 44.875 96.601562 56.90625 111.441406 56.90625 C 126.285156 56.90625 138.316406 44.875 138.316406 30.035156 C 138.316406 15.191406 126.285156 3.160156 111.441406 3.160156 Z M 111.441406 3.160156 " clip-rule="nonzero"/></clipPath><clipPath id="18b1e0b85b"><path d="M 45.554688 168.070312 L 99.324219 168.070312 L 99.324219 221.839844 L 45.554688 221.839844 Z M 45.554688 168.070312 " clip-rule="nonzero"/></clipPath><clipPath id="7dee4fdc44"><path d="M 72.441406 168.070312 C 57.59375 168.070312 45.554688 180.105469 45.554688 194.953125 C 45.554688 209.800781 57.59375 221.839844 72.441406 221.839844 C 87.289062 221.839844 99.324219 209.800781 99.324219 194.953125 C 99.324219 180.105469 87.289062 168.070312 72.441406 168.070312 Z M 72.441406 168.070312 " clip-rule="nonzero"/></clipPath><clipPath id="915f26eb7d"><path d="M 0.554688 0.0703125 L 54.324219 0.0703125 L 54.324219 53.839844 L 0.554688 53.839844 Z M 0.554688 0.0703125 " clip-rule="nonzero"/></clipPath><clipPath id="b1abc3e584"><path d="M 27.441406 0.0703125 C 12.59375 0.0703125 0.554688 12.105469 0.554688 26.953125 C 0.554688 41.800781 12.59375 53.839844 27.441406 53.839844 C 42.289062 53.839844 54.324219 41.800781 54.324219 26.953125 C 54.324219 12.105469 42.289062 0.0703125 27.441406 0.0703125 Z M 27.441406 0.0703125 " clip-rule="nonzero"/></clipPath><clipPath id="5ce507778a"><rect x="0" width="55" y="0" height="54"/></clipPath><clipPath id="6cff78e678"><path d="M 45.554688 168.070312 L 98.988281 168.070312 L 98.988281 221.503906 L 45.554688 221.503906 Z M 45.554688 168.070312 " clip-rule="nonzero"/></clipPath><clipPath id="e54fcea17b"><path d="M 72.441406 168.070312 C 57.59375 168.070312 45.554688 180.105469 45.554688 194.953125 C 45.554688 209.800781 57.59375 221.835938 72.441406 221.835938 C 87.289062 221.835938 99.324219 209.800781 99.324219 194.953125 C 99.324219 180.105469 87.289062 168.070312 72.441406 168.070312 Z M 72.441406 168.070312 " clip-rule="nonzero"/></clipPath><clipPath id="69c828ea0c"><path d="M 131.851562 162.792969 L 185.582031 162.792969 L 185.582031 216.519531 L 131.851562 216.519531 Z M 131.851562 162.792969 " clip-rule="nonzero"/></clipPath><clipPath id="86f6df5b2d"><path d="M 158.714844 162.792969 C 143.878906 162.792969 131.851562 174.820312 131.851562 189.65625 C 131.851562 204.492188 143.878906 216.519531 158.714844 216.519531 C 173.554688 216.519531 185.582031 204.492188 185.582031 189.65625 C 185.582031 174.820312 173.554688 162.792969 158.714844 162.792969 Z M 158.714844 162.792969 " clip-rule="nonzero"/></clipPath><clipPath id="d48414a29a"><path d="M 0.851562 0.792969 L 54.582031 0.792969 L 54.582031 54.519531 L 0.851562 54.519531 Z M 0.851562 0.792969 " clip-rule="nonzero"/></clipPath><clipPath id="647a1e4b09"><path d="M 27.714844 0.792969 C 12.878906 0.792969 0.851562 12.820312 0.851562 27.65625 C 0.851562 42.492188 12.878906 54.519531 27.714844 54.519531 C 42.554688 54.519531 54.582031 42.492188 54.582031 27.65625 C 54.582031 12.820312 42.554688 0.792969 27.714844 0.792969 Z M 27.714844 0.792969 " clip-rule="nonzero"/></clipPath><clipPath id="d8b34f70e7"><rect x="0" width="55" y="0" height="55"/></clipPath><clipPath id="800daace52"><path d="M 131.851562 162.792969 L 185.285156 162.792969 L 185.285156 216.226562 L 131.851562 216.226562 Z M 131.851562 162.792969 " clip-rule="nonzero"/></clipPath><clipPath id="e8b7f9e242"><path d="M 158.714844 162.792969 C 143.878906 162.792969 131.851562 174.816406 131.851562 189.652344 C 131.851562 204.488281 143.878906 216.515625 158.714844 216.515625 C 173.550781 216.515625 185.574219 204.488281 185.574219 189.652344 C 185.574219 174.816406 173.550781 162.792969 158.714844 162.792969 Z M 158.714844 162.792969 " clip-rule="nonzero"/></clipPath><clipPath id="a231fbea9a"><path d="M 1.050781 110.96875 L 54.46875 110.96875 L 54.46875 164.386719 L 1.050781 164.386719 Z M 1.050781 110.96875 " clip-rule="nonzero"/></clipPath><clipPath id="101366daca"><path d="M 27.757812 110.96875 C 13.007812 110.96875 1.050781 122.925781 1.050781 137.675781 C 1.050781 152.425781 13.007812 164.386719 27.757812 164.386719 C 42.511719 164.386719 54.46875 152.425781 54.46875 137.675781 C 54.46875 122.925781 42.511719 110.96875 27.757812 110.96875 Z M 27.757812 110.96875 " clip-rule="nonzero"/></clipPath><clipPath id="6fdd1587a5"><path d="M 0.0507812 0.96875 L 53.46875 0.96875 L 53.46875 54.386719 L 0.0507812 54.386719 Z M 0.0507812 0.96875 " clip-rule="nonzero"/></clipPath><clipPath id="2a10868070"><path d="M 26.757812 0.96875 C 12.007812 0.96875 0.0507812 12.925781 0.0507812 27.675781 C 0.0507812 42.425781 12.007812 54.386719 26.757812 54.386719 C 41.511719 54.386719 53.46875 42.425781 53.46875 27.675781 C 53.46875 12.925781 41.511719 0.96875 26.757812 0.96875 Z M 26.757812 0.96875 " clip-rule="nonzero"/></clipPath><clipPath id="fce09fd790"><rect x="0" width="54" y="0" height="55"/></clipPath><clipPath id="831afc81f8"><path d="M 1.050781 110.96875 L 54.460938 110.96875 L 54.460938 164.378906 L 1.050781 164.378906 Z M 1.050781 110.96875 " clip-rule="nonzero"/></clipPath><clipPath id="445d8d4887"><path d="M 27.757812 110.96875 C 13.007812 110.96875 1.050781 122.925781 1.050781 137.675781 C 1.050781 152.421875 13.007812 164.378906 27.757812 164.378906 C 42.503906 164.378906 54.460938 152.421875 54.460938 137.675781 C 54.460938 122.925781 42.503906 110.96875 27.757812 110.96875 Z M 27.757812 110.96875 " clip-rule="nonzero"/></clipPath><clipPath id="0f6c99de8c"><path d="M 11.527344 39.390625 L 65.3125 39.390625 L 65.3125 93.175781 L 11.527344 93.175781 Z M 11.527344 39.390625 " clip-rule="nonzero"/></clipPath><clipPath id="339fc64588"><path d="M 38.421875 39.390625 C 23.570312 39.390625 11.527344 51.433594 11.527344 66.285156 C 11.527344 81.136719 23.570312 93.175781 38.421875 93.175781 C 53.273438 93.175781 65.3125 81.136719 65.3125 66.285156 C 65.3125 51.433594 53.273438 39.390625 38.421875 39.390625 Z M 38.421875 39.390625 " clip-rule="nonzero"/></clipPath><clipPath id="754a036fb9"><path d="M 0.527344 0.390625 L 54.3125 0.390625 L 54.3125 54.175781 L 0.527344 54.175781 Z M 0.527344 0.390625 " clip-rule="nonzero"/></clipPath><clipPath id="71b2bb6105"><path d="M 27.421875 0.390625 C 12.570312 0.390625 0.527344 12.433594 0.527344 27.285156 C 0.527344 42.136719 12.570312 54.175781 27.421875 54.175781 C 42.273438 54.175781 54.3125 42.136719 54.3125 27.285156 C 54.3125 12.433594 42.273438 0.390625 27.421875 0.390625 Z M 27.421875 0.390625 " clip-rule="nonzero"/></clipPath><clipPath id="f9c7117d24"><rect x="0" width="55" y="0" height="55"/></clipPath><clipPath id="e7a13f40aa"><path d="M 11.527344 39.390625 L 64.960938 39.390625 L 64.960938 92.824219 L 11.527344 92.824219 Z M 11.527344 39.390625 " clip-rule="nonzero"/></clipPath><clipPath id="048f1f3aee"><path d="M 38.417969 39.390625 C 23.566406 39.390625 11.527344 51.429688 11.527344 66.28125 C 11.527344 81.132812 23.566406 93.171875 38.417969 93.171875 C 53.269531 93.171875 65.308594 81.132812 65.308594 66.28125 C 65.308594 51.429688 53.269531 39.390625 38.417969 39.390625 Z M 38.417969 39.390625 " clip-rule="nonzero"/></clipPath><clipPath id="05d1b4c44b"><rect x="0" width="225" y="0" height="225"/></clipPath></defs><g clip-path="url(#683456b3dd)"><g transform="matrix(1, 0, 0, 1, 0, -0.000000000000003234)"><g clip-path="url(#05d1b4c44b)"><g clip-path="url(#d6a7e1b37a)"><g clip-path="url(#b0168307c1)"><g transform="matrix(1, 0, 0, 1, 170, 107)"><g clip-path="url(#df73fc289c)"><g clip-path="url(#c9f657d426)"><g clip-path="url(#e9098d5cd9)"><path fill="#eebf3e" d="M 0.410156 0.667969 L 53.828125 0.667969 L 53.828125 54.085938 L 0.410156 54.085938 Z M 0.410156 0.667969 " fill-opacity="1" fill-rule="nonzero"/></g></g></g></g></g></g><g clip-path="url(#c3c9adc6cd)"><g clip-path="url(#000f2b01cc)"><path stroke-linecap="butt" transform="matrix(0.712443, 0, 0, 0.712443, 170.412087, 107.668914)" fill="none" stroke-linejoin="miter" d="M 37.483835 -0.00132689 C 16.780428 -0.00132689 -0.00271028 16.781811 -0.00271028 37.485218 C -0.00271028 58.188626 16.780428 74.966281 37.483835 74.966281 C 58.187242 74.966281 74.97038 58.188626 74.97038 37.485218 C 74.97038 16.781811 58.187242 -0.00132689 37.483835 -0.00132689 Z M 37.483835 -0.00132689 " stroke="#000000" stroke-width="8.417233" stroke-opacity="1" stroke-miterlimit="4"/></g></g><g clip-path="url(#8862db6cb2)"><g clip-path="url(#080914f1b2)"><g transform="matrix(1, 0, 0, 1, 154, 36)"><g clip-path="url(#e226ae6e99)"><g clip-path="url(#8af46ec002)"><g clip-path="url(#5f981d057b)"><path fill="#f28d3c" d="M 0.972656 0.761719 L 54.738281 0.761719 L 54.738281 54.523438 L 0.972656 54.523438 Z M 0.972656 0.761719 " fill-opacity="1" fill-rule="nonzero"/></g></g></g></g></g></g><g clip-path="url(#a88707b372)"><g clip-path="url(#986fe2f8b1)"><path stroke-linecap="butt" transform="matrix(0.712443, 0, 0, 0.712443, 154.974339, 36.761592)" fill="none" stroke-linejoin="miter" d="M 37.725431 0.000178341 C 16.890434 0.000178341 -0.00236216 16.892974 -0.00236216 37.727971 C -0.00236216 58.562968 16.890434 75.455764 37.725431 75.455764 C 58.560427 75.455764 75.453223 58.562968 75.453223 37.727971 C 75.453223 16.892974 58.560427 0.000178341 37.725431 0.000178341 Z M 37.725431 0.000178341 " stroke="#000000" stroke-width="8.417233" stroke-opacity="1" stroke-miterlimit="4"/></g></g><g clip-path="url(#a2c6938817)"><g clip-path="url(#3c9aea82f1)"><g transform="matrix(1, 0, 0, 1, 84, 3)"><g clip-path="url(#b961c951d0)"><g clip-path="url(#a876481cb5)"><g clip-path="url(#d62c3b82c7)"><path fill="#e44044" d="M 0.570312 0.160156 L 54.324219 0.160156 L 54.324219 53.917969 L 0.570312 53.917969 Z M 0.570312 0.160156 " fill-opacity="1" fill-rule="nonzero"/></g></g></g></g></g></g><g clip-path="url(#f10ea15520)"><g clip-path="url(#6b1679a74e)"><path stroke-linecap="butt" transform="matrix(0.712443, 0, 0, 0.712443, 84.56969, 3.162052)" fill="none" stroke-linejoin="miter" d="M 37.717701 -0.00266068 C 16.888187 -0.00266068 0.000874303 16.884652 0.000874303 37.719649 C 0.000874303 58.549163 16.888187 75.436476 37.717701 75.436476 C 58.552698 75.436476 75.440011 58.549163 75.440011 37.719649 C 75.440011 16.884652 58.552698 -0.00266068 37.717701 -0.00266068 Z M 37.717701 -0.00266068 " stroke="#000000" stroke-width="8.417233" stroke-opacity="1" stroke-miterlimit="4"/></g></g><g clip-path="url(#18b1e0b85b)"><g clip-path="url(#7dee4fdc44)"><g transform="matrix(1, 0, 0, 1, 45, 168)"><g clip-path="url(#5ce507778a)"><g clip-path="url(#915f26eb7d)"><g clip-path="url(#b1abc3e584)"><path fill="#009dd0" d="M 0.554688 0.0703125 L 54.324219 0.0703125 L 54.324219 53.839844 L 0.554688 53.839844 Z M 0.554688 0.0703125 " fill-opacity="1" fill-rule="nonzero"/></g></g></g></g></g></g><g clip-path="url(#6cff78e678)"><g clip-path="url(#e54fcea17b)"><path stroke-linecap="butt" transform="matrix(0.712443, 0, 0, 0.712443, 45.556453, 168.069782)" fill="none" stroke-linejoin="miter" d="M 37.736281 0.000744773 C 16.895801 0.000744773 -0.00247772 16.893541 -0.00247772 37.73402 C -0.00247772 58.5745 16.895801 75.467296 37.736281 75.467296 C 58.57676 75.467296 75.469556 58.5745 75.469556 37.73402 C 75.469556 16.893541 58.57676 0.000744773 37.736281 0.000744773 Z M 37.736281 0.000744773 " stroke="#000000" stroke-width="8.417233" stroke-opacity="1" stroke-miterlimit="4"/></g></g><g clip-path="url(#69c828ea0c)"><g clip-path="url(#86f6df5b2d)"><g transform="matrix(1, 0, 0, 1, 131, 162)"><g clip-path="url(#d8b34f70e7)"><g clip-path="url(#d48414a29a)"><g clip-path="url(#647a1e4b09)"><path fill="#009f54" d="M 0.851562 0.792969 L 54.582031 0.792969 L 54.582031 54.519531 L 0.851562 54.519531 Z M 0.851562 0.792969 " fill-opacity="1" fill-rule="nonzero"/></g></g></g></g></g></g><g clip-path="url(#800daace52)"><g clip-path="url(#e8b7f9e242)"><path stroke-linecap="butt" transform="matrix(0.712443, 0, 0, 0.712443, 131.852798, 162.791689)" fill="none" stroke-linejoin="miter" d="M 37.704126 0.00179596 C 16.880095 0.00179596 -0.00173476 16.878143 -0.00173476 37.702174 C -0.00173476 58.526205 16.880095 75.408035 37.704126 75.408035 C 58.528157 75.408035 75.404505 58.526205 75.404505 37.702174 C 75.404505 16.878143 58.528157 0.00179596 37.704126 0.00179596 Z M 37.704126 0.00179596 " stroke="#000000" stroke-width="8.417233" stroke-opacity="1" stroke-miterlimit="4"/></g></g><g clip-path="url(#a231fbea9a)"><g clip-path="url(#101366daca)"><g transform="matrix(1, 0, 0, 1, 1, 110)"><g clip-path="url(#fce09fd790)"><g clip-path="url(#6fdd1587a5)"><g clip-path="url(#2a10868070)"><path fill="#155394" d="M 0.0507812 0.96875 L 53.46875 0.96875 L 53.46875 54.386719 L 0.0507812 54.386719 Z M 0.0507812 0.96875 " fill-opacity="1" fill-rule="nonzero"/></g></g></g></g></g></g><g clip-path="url(#831afc81f8)"><g clip-path="url(#445d8d4887)"><path stroke-linecap="butt" transform="matrix(0.712443, 0, 0, 0.712443, 1.050959, 110.96842)" fill="none" stroke-linejoin="miter" d="M 37.486296 0.000462742 C 16.782889 0.000462742 -0.000248847 16.783601 -0.000248847 37.487008 C -0.000248847 58.184932 16.782889 74.968071 37.486296 74.968071 C 58.184221 74.968071 74.967359 58.184932 74.967359 37.487008 C 74.967359 16.783601 58.184221 0.000462742 37.486296 0.000462742 Z M 37.486296 0.000462742 " stroke="#000000" stroke-width="8.417233" stroke-opacity="1" stroke-miterlimit="4"/></g></g><g clip-path="url(#0f6c99de8c)"><g clip-path="url(#339fc64588)"><g transform="matrix(1, 0, 0, 1, 11, 39)"><g clip-path="url(#f9c7117d24)"><g clip-path="url(#754a036fb9)"><g clip-path="url(#71b2bb6105)"><path fill="#674075" d="M 0.527344 0.390625 L 54.3125 0.390625 L 54.3125 54.175781 L 0.527344 54.175781 Z M 0.527344 0.390625 " fill-opacity="1" fill-rule="nonzero"/></g></g></g></g></g></g><g clip-path="url(#e7a13f40aa)"><g clip-path="url(#048f1f3aee)"><path stroke-linecap="butt" transform="matrix(0.712443, 0, 0, 0.712443, 11.528324, 39.392245)" fill="none" stroke-linejoin="miter" d="M 37.742866 -0.00227339 C 16.896904 -0.00227339 -0.00137535 16.896005 -0.00137535 37.741968 C -0.00137535 58.58793 16.896904 75.486209 37.742866 75.486209 C 58.588828 75.486209 75.487107 58.58793 75.487107 37.741968 C 75.487107 16.896005 58.588828 -0.00227339 37.742866 -0.00227339 Z M 37.742866 -0.00227339 " stroke="#000000" stroke-width="8.417233" stroke-opacity="1" stroke-miterlimit="4"/></g></g></g></g></g></svg>